<?xml version="1.0" encoding="utf-8"?>
<!-- Generator: Adobe Illustrator 27.1.1, SVG Export Plug-In . SVG Version: 6.00 Build 0)  -->
<svg version="1.1" id="Layer_1" xmlns="http://www.w3.org/2000/svg" xmlns:xlink="http://www.w3.org/1999/xlink" x="0px" y="0px"
	 viewBox="0 0 339.4 57.4" style="enable-background:new 0 0 339.4 57.4;" xml:space="preserve">
<style type="text/css">
	.st0{fill:#00B5D1;}
</style>
<g>
	<g>
		<path class="st0" d="M8.2,5.9H0V0.5h22.4v5.5h-8.2v21.5H8.2V5.9z"/>
		<path class="st0" d="M27,0.5h12.4c3.4,0,6.1,1,7.9,2.7c1.5,1.5,2.3,3.6,2.3,6.2v0.1c0,4.4-2.4,7.1-5.8,8.4l6.6,9.7h-7l-5.8-8.7
			h-4.7v8.7H27V0.5z M38.9,13.6c2.9,0,4.6-1.5,4.6-3.8V9.7c0-2.5-1.8-3.9-4.7-3.9h-5.9v7.8H38.9z"/>
		<path class="st0" d="M54.9,0.5h20.4v5.3H60.8v5.5h12.7v5.3H60.8v5.7h14.7v5.3H54.9V0.5z"/>
		<path class="st0" d="M80.8,0.5h5.5l12.7,16.6V0.5h5.9v27h-5.1L86.6,10.3v17.2h-5.9V0.5z"/>
		<path class="st0" d="M111.5,0.5h5.9v27h-5.9V0.5z"/>
		<path class="st0" d="M124.2,0.5h5.5l12.7,16.6V0.5h5.9v27h-5.1l-13.1-17.2v17.2h-5.9V0.5z"/>
		<path class="st0" d="M153.6,14.1L153.6,14.1c0-7.8,6-14.1,14.2-14.1c4.9,0,7.8,1.3,10.6,3.7l-3.7,4.5c-2.1-1.7-3.9-2.7-7.1-2.7
			c-4.3,0-7.8,3.8-7.8,8.4V14c0,4.9,3.4,8.6,8.2,8.6c2.2,0,4.1-0.5,5.6-1.6v-3.9h-6v-5.1h11.7v11.7c-2.8,2.4-6.6,4.3-11.5,4.3
			C159.4,28,153.6,22.1,153.6,14.1z"/>
		<path class="st0" d="M183.2,23.6l3.5-4.2c2.4,2,5,3.3,8.1,3.3c2.4,0,3.9-1,3.9-2.5V20c0-1.5-0.9-2.3-5.4-3.4c-5.4-1.4-9-2.9-9-8.3
			V8.2c0-4.9,3.9-8.1,9.5-8.1c3.9,0,7.3,1.2,10,3.4L200.7,8c-2.4-1.7-4.8-2.7-7-2.7c-2.3,0-3.5,1-3.5,2.4v0.1c0,1.8,1.2,2.4,5.8,3.6
			c5.5,1.4,8.6,3.4,8.6,8.1v0.1c0,5.4-4.1,8.4-9.9,8.4C190.6,27.9,186.4,26.5,183.2,23.6z"/>
		<path class="st0" d="M209.8,0.5h5.9v10.7h11V0.5h5.9v27h-5.9V16.6h-11v10.9h-5.9V0.5z"/>
		<path class="st0" d="M238.7,15.9V0.5h5.9v15.3c0,4.4,2.2,6.7,5.8,6.7c3.6,0,5.8-2.2,5.8-6.5V0.5h5.9v15.3
			c0,8.2-4.6,12.2-11.9,12.2C243.1,27.9,238.7,23.9,238.7,15.9z"/>
		<path class="st0" d="M266.5,23.6l3.5-4.2c2.4,2,5,3.3,8.1,3.3c2.4,0,3.9-1,3.9-2.5V20c0-1.5-0.9-2.3-5.4-3.4c-5.4-1.4-9-2.9-9-8.3
			V8.2c0-4.9,3.9-8.1,9.5-8.1c3.9,0,7.3,1.2,10,3.4L283.9,8c-2.4-1.7-4.8-2.7-7-2.7c-2.3,0-3.5,1-3.5,2.4v0.1c0,1.8,1.2,2.4,5.8,3.6
			c5.5,1.4,8.6,3.4,8.6,8.1v0.1c0,5.4-4.1,8.4-9.9,8.4C273.8,27.9,269.7,26.5,266.5,23.6z"/>
		<path class="st0" d="M293,0.5h20.4v5.3h-14.5v5.5h12.7v5.3h-12.7v5.7h14.7v5.3H293V0.5z"/>
		<path class="st0" d="M325.2,5.9H317V0.5h22.4v5.5h-8.2v21.5h-5.9V5.9z"/>
	</g>
	<g>
		<path d="M1,41.4h4.8c4.1,0,6.9,2.8,6.9,6.5v0c0,3.7-2.8,6.5-6.9,6.5H1V41.4z M3.3,43.5v8.8h2.6c2.7,0,4.5-1.8,4.5-4.4v0
			c0-2.5-1.8-4.4-4.5-4.4H3.3z"/>
		<path d="M15.3,41h2.4v2.1h-2.4V41z M15.4,44.6h2.2v9.8h-2.2V44.6z"/>
		<path d="M21,51.7v-5.2h-1.2v-1.9H21v-2.7h2.2v2.7h2.6v1.9h-2.6v4.8c0,0.9,0.4,1.2,1.2,1.2c0.5,0,0.9-0.1,1.4-0.3v1.8
			c-0.6,0.3-1.2,0.5-2,0.5C22.2,54.6,21,53.9,21,51.7z"/>
		<path d="M28.6,51.7v-5.2h-1.2v-1.9h1.2v-2.7h2.2v2.7h2.6v1.9h-2.6v4.8c0,0.9,0.4,1.2,1.2,1.2c0.5,0,0.9-0.1,1.4-0.3v1.8
			c-0.6,0.3-1.2,0.5-2,0.5C29.8,54.6,28.6,53.9,28.6,51.7z"/>
		<path d="M41.8,51.7v-5.2h-1.2v-1.9h1.2v-2.7h2.2v2.7h2.6v1.9h-2.6v4.8c0,0.9,0.4,1.2,1.2,1.2c0.5,0,0.9-0.1,1.4-0.3v1.8
			c-0.6,0.3-1.2,0.5-2,0.5C43,54.6,41.8,53.9,41.8,51.7z"/>
		<path d="M49,44.6h2.2v2.2c0.6-1.5,1.7-2.5,3.5-2.4v2.4h-0.1c-2,0-3.3,1.3-3.3,3.9v3.7H49V44.6z"/>
		<path d="M55.8,49.6L55.8,49.6c0-2.8,2-5.1,4.8-5.1c3.1,0,4.7,2.4,4.7,5.3c0,0.2,0,0.4,0,0.6H58c0.2,1.6,1.4,2.5,2.8,2.5
			c1.1,0,1.9-0.4,2.7-1.2l1.3,1.2c-0.9,1.1-2.2,1.8-4,1.8C58,54.6,55.8,52.6,55.8,49.6z M63,48.8c-0.1-1.4-1-2.6-2.5-2.6
			c-1.4,0-2.3,1.1-2.5,2.6H63z"/>
		<path d="M67.5,44.6h2.2v1.5c0.6-0.9,1.5-1.7,3.1-1.7c2.2,0,3.5,1.5,3.5,3.7v6.3h-2.2v-5.6c0-1.5-0.8-2.4-2.1-2.4
			c-1.3,0-2.2,0.9-2.2,2.4v5.5h-2.2V44.6z"/>
		<path d="M79,41h2.4v2.1H79V41z M79.1,44.6h2.2v9.8h-2.2V44.6z"/>
		<path d="M84.3,44.6h2.2v1.5c0.6-0.9,1.5-1.7,3.1-1.7c2.2,0,3.5,1.5,3.5,3.7v6.3h-2.2v-5.6c0-1.5-0.8-2.4-2.1-2.4
			c-1.3,0-2.2,0.9-2.2,2.4v5.5h-2.2V44.6z"/>
		<path d="M95.8,56.3l0.8-1.7c1.1,0.6,2.2,1,3.5,1c2,0,3.1-1,3.1-3v-0.8c-0.8,1.1-1.8,1.8-3.5,1.8c-2.3,0-4.5-1.7-4.5-4.6v0
			c0-2.9,2.2-4.6,4.5-4.6c1.7,0,2.7,0.8,3.4,1.7v-1.5h2.2v7.8c0,1.7-0.4,2.9-1.2,3.7c-0.9,0.9-2.3,1.3-4,1.3
			C98.6,57.4,97.1,57,95.8,56.3z M103.2,49L103.2,49c0-1.6-1.3-2.7-2.9-2.7s-2.8,1.1-2.8,2.7v0c0,1.6,1.2,2.7,2.8,2.7
			C101.9,51.7,103.2,50.6,103.2,49z"/>
		<path d="M107.5,53.1l1-1.5c1.1,0.8,2.2,1.2,3.2,1.2c1,0,1.5-0.4,1.5-1.1v0c0-0.8-1-1-2.2-1.4c-1.4-0.4-3.1-1-3.1-2.9v0
			c0-1.9,1.5-3,3.5-3c1.2,0,2.6,0.4,3.6,1.1l-0.9,1.6c-0.9-0.6-1.9-0.9-2.8-0.9c-0.9,0-1.4,0.4-1.4,1v0c0,0.7,1.1,1,2.2,1.4
			c1.4,0.4,3,1.1,3,2.9v0c0,2.1-1.6,3.1-3.6,3.1C110.2,54.6,108.7,54.1,107.5,53.1z"/>
		<path d="M116.6,53.1l1-1.5c1.1,0.8,2.2,1.2,3.2,1.2c1,0,1.5-0.4,1.5-1.1v0c0-0.8-1-1-2.2-1.4c-1.4-0.4-3.1-1-3.1-2.9v0
			c0-1.9,1.5-3,3.5-3c1.2,0,2.6,0.4,3.6,1.1l-0.9,1.6c-0.9-0.6-1.9-0.9-2.8-0.9c-0.9,0-1.4,0.4-1.4,1v0c0,0.7,1.1,1,2.2,1.4
			c1.4,0.4,3,1.1,3,2.9v0c0,2.1-1.6,3.1-3.6,3.1C119.3,54.6,117.8,54.1,116.6,53.1z"/>
		<path d="M126.1,49.6L126.1,49.6c0-2.8,2-5.1,4.8-5.1c3.1,0,4.7,2.4,4.7,5.3c0,0.2,0,0.4,0,0.6h-7.2c0.2,1.6,1.4,2.5,2.8,2.5
			c1.1,0,1.9-0.4,2.7-1.2l1.3,1.2c-0.9,1.1-2.2,1.8-4,1.8C128.3,54.6,126.1,52.6,126.1,49.6z M133.4,48.8c-0.1-1.4-1-2.6-2.5-2.6
			c-1.4,0-2.3,1.1-2.5,2.6H133.4z"/>
		<path d="M137.9,44.6h2.2v1.5c0.6-0.9,1.5-1.7,3.1-1.7c2.2,0,3.5,1.5,3.5,3.7v6.3h-2.2v-5.6c0-1.5-0.8-2.4-2.1-2.4
			c-1.3,0-2.2,0.9-2.2,2.4v5.5h-2.2V44.6z"/>
		<path d="M149.8,51.7v-5.2h-1.2v-1.9h1.2v-2.7h2.2v2.7h2.6v1.9h-2.6v4.8c0,0.9,0.4,1.2,1.2,1.2c0.5,0,0.9-0.1,1.4-0.3v1.8
			c-0.6,0.3-1.2,0.5-2,0.5C151,54.6,149.8,53.9,149.8,51.7z"/>
		<path d="M156.2,49.6L156.2,49.6c0-2.8,2-5.1,4.8-5.1c3.1,0,4.7,2.4,4.7,5.3c0,0.2,0,0.4,0,0.6h-7.2c0.2,1.6,1.4,2.5,2.8,2.5
			c1.1,0,1.9-0.4,2.7-1.2l1.3,1.2c-0.9,1.1-2.2,1.8-4,1.8C158.4,54.6,156.2,52.6,156.2,49.6z M163.4,48.8c-0.1-1.4-1-2.6-2.5-2.6
			c-1.4,0-2.3,1.1-2.5,2.6H163.4z"/>
		<path d="M167.9,44.6h2.2v2.2c0.6-1.5,1.7-2.5,3.5-2.4v2.4h-0.1c-2,0-3.3,1.3-3.3,3.9v3.7h-2.2V44.6z"/>
		<path d="M181.2,41h2.4v2.1h-2.4V41z M181.3,44.6h2.2v9.8h-2.2V44.6z"/>
		<path d="M191.7,48L191.7,48c0-3.7,2.8-6.8,6.8-6.8s6.8,3,6.8,6.7v0c0,3.7-2.8,6.7-6.8,6.7S191.7,51.6,191.7,48z M202.9,48
			L202.9,48c0-2.6-1.8-4.7-4.4-4.7s-4.4,2.1-4.4,4.6v0c0,2.5,1.8,4.6,4.4,4.6S202.9,50.5,202.9,48z"/>
		<path d="M207,53.1l1-1.5c1.1,0.8,2.2,1.2,3.2,1.2c1,0,1.5-0.4,1.5-1.1v0c0-0.8-1-1-2.2-1.4c-1.4-0.4-3.1-1-3.1-2.9v0
			c0-1.9,1.5-3,3.5-3c1.2,0,2.6,0.4,3.6,1.1l-0.9,1.6c-0.9-0.6-1.9-0.9-2.8-0.9c-0.9,0-1.4,0.4-1.4,1v0c0,0.7,1.1,1,2.2,1.4
			c1.4,0.4,3,1.1,3,2.9v0c0,2.1-1.6,3.1-3.6,3.1C209.8,54.6,208.2,54.1,207,53.1z"/>
		<path d="M217.2,40.9h2.2v13.5h-2.2V40.9z"/>
		<path d="M221.9,49.6L221.9,49.6c0-2.8,2.2-5.2,5.2-5.2s5.2,2.3,5.2,5.1v0c0,2.8-2.2,5.1-5.3,5.1C224.1,54.6,221.9,52.4,221.9,49.6
			z M230.1,49.6L230.1,49.6c0-1.8-1.2-3.2-3-3.2c-1.8,0-3,1.4-3,3.1v0c0,1.7,1.2,3.1,3,3.1C228.9,52.7,230.1,51.3,230.1,49.6z"/>
		<path d="M239.4,53.1l1-1.5c1.1,0.8,2.2,1.2,3.2,1.2c1,0,1.5-0.4,1.5-1.1v0c0-0.8-1-1-2.2-1.4c-1.4-0.4-3.1-1-3.1-2.9v0
			c0-1.9,1.5-3,3.5-3c1.2,0,2.6,0.4,3.6,1.1l-0.9,1.6c-0.9-0.6-1.9-0.9-2.8-0.9c-0.9,0-1.4,0.4-1.4,1v0c0,0.7,1.1,1,2.2,1.4
			c1.4,0.4,3,1.1,3,2.9v0c0,2.1-1.6,3.1-3.6,3.1C242.1,54.6,240.6,54.1,239.4,53.1z"/>
		<path d="M248.9,49.6L248.9,49.6c0-2.8,2-5.1,4.8-5.1c3.1,0,4.7,2.4,4.7,5.3c0,0.2,0,0.4,0,0.6h-7.2c0.2,1.6,1.4,2.5,2.8,2.5
			c1.1,0,1.9-0.4,2.7-1.2l1.3,1.2c-0.9,1.1-2.2,1.8-4,1.8C251.1,54.6,248.9,52.6,248.9,49.6z M256.2,48.8c-0.1-1.4-1-2.6-2.5-2.6
			c-1.4,0-2.3,1.1-2.5,2.6H256.2z"/>
		<path d="M260.7,44.6h2.2v1.5c0.6-0.9,1.5-1.7,3.1-1.7c2.2,0,3.5,1.5,3.5,3.7v6.3h-2.2v-5.6c0-1.5-0.8-2.4-2.1-2.4
			c-1.3,0-2.2,0.9-2.2,2.4v5.5h-2.2V44.6z"/>
		<path d="M272.6,51.7v-5.2h-1.2v-1.9h1.2v-2.7h2.2v2.7h2.6v1.9h-2.6v4.8c0,0.9,0.4,1.2,1.2,1.2c0.5,0,0.9-0.1,1.4-0.3v1.8
			c-0.6,0.3-1.2,0.5-2,0.5C273.8,54.6,272.6,53.9,272.6,51.7z"/>
		<path d="M279.8,44.6h2.2v2.2c0.6-1.5,1.7-2.5,3.5-2.4v2.4h-0.1c-2,0-3.3,1.3-3.3,3.9v3.7h-2.2V44.6z"/>
		<path d="M287.3,50.9v-6.2h2.2v5.6c0,1.5,0.8,2.4,2.1,2.4c1.3,0,2.2-0.9,2.2-2.4v-5.5h2.3v9.8h-2.3v-1.5c-0.6,0.9-1.5,1.7-3.1,1.7
			C288.6,54.6,287.3,53.1,287.3,50.9z"/>
		<path d="M299,44.6h2.2v1.5c0.6-0.9,1.5-1.7,3-1.7c1.4,0,2.4,0.7,2.9,1.7c0.8-1,1.8-1.7,3.3-1.7c2.1,0,3.4,1.4,3.4,3.7v6.3h-2.2
			v-5.6c0-1.6-0.7-2.4-2-2.4c-1.2,0-2.1,0.9-2.1,2.4v5.5h-2.2v-5.6c0-1.5-0.7-2.4-2-2.4s-2.1,0.9-2.1,2.4v5.5H299V44.6z"/>
	</g>
</g>
</svg>